Coordinates
version=1
nRows=5
nColumns=40
inDegrees=yes

Units are S.I. units (second, meters, Newtons, ...)
Angles are in degrees.

endheader
time	pelvis_tilt	pelvis_list	pelvis_rotation	pelvis_tx	pelvis_ty	pelvis_tz	hip_flexion_r	hip_adduction_r	hip_rotation_r	knee_angle_r	knee_angle_r_beta	ankle_angle_r	subtalar_angle_r	mtp_angle_r	hip_flexion_l	hip_adduction_l	hip_rotation_l	knee_angle_l	knee_angle_l_beta	ankle_angle_l	subtalar_angle_l	mtp_angle_l	lumbar_extension	lumbar_bending	lumbar_rotation	arm_flex_r	arm_add_r	arm_rot_r	elbow_flex_r	pro_sup_r	wrist_flex_r	wrist_dev_r	arm_flex_l	arm_add_l	arm_rot_l	elbow_flex_l	pro_sup_l	wrist_flex_l	wrist_dev_l
      1.53000000	     -0.32037675	     -5.22683196	      5.72591432	      0.39107508	      0.94645024	      1.50525080	     18.60160000	      1.96443434	    -16.22190573	    -21.75832488	     -0.37975441	     -1.60935881	     -8.62321253	     -0.10659035	      1.39776243	     14.40975577	     10.37127246	    -51.58537645	     -0.90033466	     -4.77085035	     13.79609752	     -2.15305758	     -1.79924446	      6.53949642	     -7.08412678	     -3.34995111	    -10.47506303	    -19.38142416	     14.18495518	     89.95437384	      0.00000000	      0.00000000	      3.69597724	      9.61184544	     -1.87979484	     26.15012335	     89.95437384	      0.00000000	      0.00000000
      1.54000000	     -0.06256362	     -5.02492212	      5.92824559	      0.40065668	      0.94856559	      1.50693052	     17.45970058	      1.98382325	    -16.21441371	    -21.48278190	     -0.37494528	     -0.94149181	     -8.45859523	     -0.23107933	      2.81644245	     14.06917566	      9.85873408	    -53.52616870	     -0.93420788	     -3.51398192	     14.83086561	     -2.12629831	     -2.16793372	      6.23182807	     -6.91690706	     -2.93146480	    -10.44695610	    -19.25128790	     14.34447161	     89.95437384	      0.00000000	      0.00000000	      3.27625922	      9.55404939	     -2.27972587	     24.72103620	     89.95437384	      0.00000000	      0.00000000
      1.55000000	      0.01997319	     -4.82432359	      6.26209717	      0.40993276	      0.95031112	      1.50825099	     16.44730392	      1.93524931	    -16.41955756	    -21.02883500	     -0.36702241	     -0.44348117	     -8.24377000	     -0.35143003	      4.54404547	     13.59669571	      9.13294617	    -55.33902434	     -0.96584818	     -2.43594142	     15.92086575	     -1.90464090	     -2.36052650	      5.91264908	     -6.87867155	     -2.58396566	    -10.39991964	    -19.27563942	     14.68126832	     89.95437384	      0.00000000	      0.00000000	      2.79281221	      9.54018997	     -2.70969321	     23.45818866	     89.95437384	      0.00000000	      0.00000000
      1.56000000	      0.19868560	     -4.37627877	      6.20482032	      0.41949096	      0.95226832	      1.51004621	     15.40251661	      1.65400559	    -16.71280111	    -20.77276729	     -0.36255318	     -0.10004824	     -8.13624505	     -0.40522556	      5.85437905	     13.07790423	      9.32672127	    -56.72446961	     -0.99002876	     -1.96141262	     16.08524809	     -1.88825784	     -2.72755124	      5.32422996	     -6.45491476	     -2.21088111	    -10.35605214	    -19.16904200	     15.00127334	     89.95437384	      0.00000000	      0.00000000	      2.08604212	      9.57618472	     -2.87331288	     22.71445059	     89.95437384	      0.00000000	      0.00000000
      1.57000000	     -0.08162901	     -3.94333014	      6.85842305	      0.42806540	      0.95337889	      1.51005783	     14.81113265	      0.99786313	    -17.83513303	    -20.52240522	     -0.35818354	      0.33431440	     -6.60311961	     -3.87974569	      8.13868169	     11.78762161	      7.83942165	    -58.50214760	     -1.02105510	      2.86572714	     16.50758611	     13.33872051	     -2.53650910	      4.77654072	     -6.71701176	     -1.92064960	    -10.38170728	    -18.94148267	     15.45140733	     89.95437384	      0.00000000	      0.00000000	      1.72313860	      9.58507301	     -3.70064623	     21.28606815	     89.95437384	      0.00000000	      0.00000000
